<?xml version="1.0" encoding="utf-8"?>
<svg width="50px" height="50px" viewBox="0 0 50 50" version="1.1" xmlns:xlink="http://www.w3.org/1999/xlink" xmlns="http://www.w3.org/2000/svg">
  <defs>
    <path d="M0 0L50 0L50 50L0 50L0 0Z" id="path_1" />
    <clipPath id="mask_1">
      <use xlink:href="#path_1" />
    </clipPath>
  </defs>
  <g id="Search-icon">
    <path d="M0 0L50 0L50 50L0 50L0 0Z" id="Background" fill="#FFFFFF" fill-opacity="0" fill-rule="evenodd" stroke="none" />
    <g clip-path="url(#mask_1)">
      <path d="M21.3542 6.25C13.037 6.25 6.25 13.037 6.25 21.3542C6.25 29.6713 13.037 36.4583 21.3542 36.4583C24.7637 36.4583 27.9051 35.3052 30.4382 33.3862L40.1937 43.1396C40.7162 43.6839 41.4921 43.9031 42.2222 43.7128C42.9523 43.5225 43.5224 42.9523 43.7128 42.2222C43.9031 41.4922 43.6839 40.7162 43.1397 40.1937L33.3862 30.4382C35.3052 27.9051 36.4583 24.7637 36.4583 21.3542C36.4583 13.037 29.6713 6.25 21.3542 6.25L21.3542 6.25ZM21.3541 10.4167C27.4194 10.4167 32.2916 15.2889 32.2916 21.3542C32.2916 24.2664 31.1604 26.8965 29.3212 28.8513C29.1422 28.9809 28.985 29.1382 28.8553 29.3172C26.9001 31.1588 24.2684 32.2917 21.3541 32.2917C15.2888 32.2917 10.4166 27.4195 10.4166 21.3542C10.4166 15.2889 15.2888 10.4167 21.3541 10.4167L21.3541 10.4167Z" id="Shape" fill="#FFFFFF" fill-rule="evenodd" stroke="none" />
    </g>
  </g>
</svg>