<?xml version="1.0" encoding="utf-8"?>
<svg width="250px" height="83.33331px" viewBox="0 0 250 83.33331" version="1.1" xmlns:xlink="http://www.w3.org/1999/xlink" xmlns="http://www.w3.org/2000/svg">
  <defs>
    <path d="M0 0L250 0L250 83.3333L0 83.3333L0 0Z" id="path_1" />
    <clipPath id="mask_1">
      <use xlink:href="#path_1" />
    </clipPath>
  </defs>
  <g id="svg">
    <path d="M0 0L250 0L250 83.3333L0 83.3333L0 0Z" id="Background" fill="#FFFFFF" fill-opacity="0" fill-rule="evenodd" stroke="none" />
    <g clip-path="url(#mask_1)">
      <g id="Group">
        <path d="M35.2468 57.2847L30.1501 51.953L30.1501 41.2713C30.1501 33.5772 30.0598 30.5896 29.8273 30.5896C29.6498 30.5896 27.4644 32.61 24.9709 35.0794C22.4774 37.5487 20.2873 39.5691 20.104 39.5691C19.6167 39.5691 10.1528 30.0257 10.1528 29.5343C10.1528 29.3054 12.3819 26.89 15.1064 24.1669L20.0601 19.2156L40.6942 19.2156L61.3282 19.2156L65.9022 23.9299C68.4179 26.5227 70.6069 28.8926 70.7667 29.1963C71.0148 29.6678 70.37 30.4698 66.3569 34.6815C63.7717 37.3946 61.4179 39.7504 61.1261 39.9166C60.6736 40.1744 59.932 39.5333 56.0795 35.5539C53.5957 32.9882 51.4067 30.889 51.215 30.889C50.9489 30.889 50.8667 33.3816 50.8667 41.443L50.8667 51.997L45.7565 57.3067C42.9459 60.2271 40.5782 62.6164 40.4949 62.6164C40.4117 62.6164 38.05 60.2172 35.2468 57.2847L35.2468 57.2847ZM93.4509 56.7184C88.9407 56.6687 85.0681 56.5572 84.845 56.4706C84.5437 56.3535 84.6632 56.0855 85.3104 55.4272C85.8408 54.8878 86.2512 54.1014 86.3602 53.4158C86.6552 51.5589 86.5704 32.6237 86.262 31.4856C86.1061 30.9105 85.6205 30.1351 85.1829 29.7624C84.5147 29.1933 84.4564 29.0383 84.819 28.7942C85.0691 28.6258 88.3958 28.5003 92.7316 28.4957C96.8461 28.4915 100.666 28.4171 101.22 28.3306C102.722 28.0961 103.046 28.4825 103.159 30.644C103.286 33.0541 102.954 33.6764 102.026 32.7718C100.892 31.6665 99.7784 31.4185 95.2415 31.2606L90.8459 31.1077L90.9255 35.7125L91.0051 40.3174L95.5623 40.3174L100.12 40.3174L100.783 39.5144C101.148 39.0727 101.5 38.5438 101.566 38.339C101.631 38.1341 101.839 38.0657 102.028 38.1869C102.473 38.4732 102.513 44.9568 102.069 44.9568C101.903 44.9568 101.468 44.5947 101.102 44.152C100.454 43.3685 100.32 43.3405 96.0283 43.0932C93.6038 42.9535 91.4494 42.9073 91.2407 42.9906C90.9478 43.1076 90.8612 44.2689 90.8612 48.0833C90.8612 54.3081 90.6466 54.0576 95.8194 53.8704C99.7984 53.7265 101.487 53.1665 102.99 51.4921C104.238 50.1028 104.477 50.6376 103.999 53.745C103.779 55.1782 103.539 56.4123 103.467 56.4874C103.199 56.7663 101.453 56.8066 93.4508 56.7184L93.4509 56.7184ZM111.817 56.4941C108.2 55.7101 107.837 55.2861 107.837 51.8374C107.837 48.9606 108.193 48.2052 108.951 49.4703C109.892 51.0395 112.592 53.5053 113.769 53.8693C115.605 54.4369 118.179 54.3349 119.256 53.6519C120.815 52.6631 121.345 50.7634 120.6 48.8286C120.093 47.5095 118.934 46.4955 113.812 42.889C110.011 40.213 108.312 38.3345 107.84 36.2865C107.25 33.7285 107.853 31.5212 109.611 29.8001C110.913 28.5259 112.066 27.9653 114.051 27.6415C117.372 27.0997 122.515 28.4067 123.297 29.991C123.731 30.8724 123.677 35.5386 123.232 35.5098C123.074 35.4996 122.379 34.7163 121.687 33.7691C119.804 31.1924 118.573 30.4627 115.898 30.3361C113.874 30.2403 113.633 30.2935 112.805 31.0176C111.133 32.4818 111.232 34.74 113.051 36.576C113.671 37.2017 115.636 38.6608 117.419 39.8182C119.201 40.9757 121.273 42.484 122.022 43.17C125.602 46.4488 126.055 50.6054 123.193 53.9176C121.373 56.0223 119.81 56.6958 116.469 56.8137C114.871 56.8701 112.939 56.7374 111.817 56.4941L111.817 56.4941ZM126.29 56.3616C125.986 56.1612 126.168 55.8195 127.092 54.8587C128.727 53.1582 132.42 45.2534 136.474 34.7814C138.495 29.5608 139.819 26.5196 140.096 26.464C140.413 26.4005 141.113 27.7942 142.65 31.5511C147.642 43.7514 151.946 53.5414 152.67 54.3406C153.095 54.8099 153.745 55.3158 154.114 55.4649C154.482 55.6139 154.731 55.9034 154.665 56.1082C154.579 56.3761 153.624 56.4805 151.261 56.4805L147.976 56.4805L146.658 53.1041C145.933 51.247 145.211 49.594 145.054 49.4307C144.88 49.2492 142.652 49.1654 139.326 49.2153L133.883 49.2969L132.706 52.6898C132.059 54.5559 131.346 56.2038 131.121 56.3518C130.598 56.6962 126.809 56.7038 126.29 56.3616L126.29 56.3616ZM143.691 46.3282C143.871 45.8396 140 35.9055 139.571 35.7569C139.212 35.6321 135.067 46.0341 135.312 46.4468C135.422 46.6315 137.086 46.7527 139.514 46.7527C142.719 46.7527 143.566 46.6666 143.691 46.3282L143.691 46.3282Z" id="logo-red" fill="#CF2329" fill-rule="evenodd" stroke="none" />
        <path d="M20.2103 62.3014C9.09466 50.7338 0 41.1707 0 41.05C0 40.9292 2.32128 40.8305 5.15839 40.8305L10.3168 40.8305L25.1982 56.6194C33.383 65.3033 40.2223 72.4443 40.3968 72.4884C40.5712 72.5325 47.5759 65.4275 55.9627 56.6995L71.2114 40.8304L76.0319 40.8304C78.6832 40.8304 80.8524 40.909 80.8524 41.005C80.8524 41.1011 76.4177 45.8872 70.9976 51.641C65.5775 57.3947 61.0997 62.2322 61.0471 62.3909C60.9857 62.5758 94.8606 62.7067 155.248 62.7549C241.667 62.8238 249.568 62.8705 249.837 63.3133C249.998 63.579 250.048 64.0167 249.949 64.286C249.782 64.738 242.41 64.7757 154.159 64.7757L58.5498 64.7757L49.6336 74.0545C44.7297 79.1578 40.6507 83.3333 40.569 83.3333C40.4874 83.3333 31.326 73.8689 20.2103 62.3014L20.2103 62.3014ZM198.103 57.5984C192.048 56.2132 187.828 51.6592 186.96 45.5735C186.3 40.9478 187.707 36.5136 190.878 33.2249C194.686 29.2761 199.76 27.7928 205.291 29.0116C208.079 29.626 210.069 30.718 212.228 32.8193C216.327 36.8084 217.592 42.9064 215.516 48.6769C214.318 52.0093 210.736 55.5017 206.976 57.0026C205.107 57.749 200.201 58.0784 198.103 57.5984L198.103 57.5984ZM206.454 54.3835C207.091 54.0394 208.205 53.0984 208.93 52.2926C212.882 47.8974 212.66 39.2459 208.477 34.5933C206.512 32.4079 204.246 31.4279 201.124 31.4135C199.013 31.4037 198.453 31.5172 197.034 32.242C195.026 33.2677 193.31 35.2273 192.433 37.4941C191.873 38.943 191.781 39.7184 191.788 42.9258C191.794 45.9918 191.903 46.9425 192.387 48.192C193.686 51.544 195.613 53.5419 198.621 54.6574C200.686 55.4232 204.796 55.2795 206.454 54.3835L206.454 54.3835ZM168.285 56.3896C160.683 55.1528 155.95 49.6302 155.95 41.9964C155.95 35.3982 160.15 29.8024 166.576 27.8388C169.866 26.8338 176.713 27.4152 179.34 28.9225C180.973 29.8598 181.288 30.6312 181.2 33.4732C181.115 36.2229 180.718 36.6503 179.864 34.9103C179.096 33.3442 177.525 31.9596 175.242 30.8356C173.564 30.0098 173.075 29.9093 170.768 29.9159C168.703 29.9218 167.888 30.0606 166.74 30.6018C164.777 31.5274 162.777 33.6555 161.798 35.8587C161.031 37.5841 160.986 37.9166 160.994 41.7284C161.001 45.4689 161.059 45.8975 161.772 47.4957C162.834 49.8793 165.153 52.2262 167.324 53.1141C168.69 53.6727 169.604 53.8187 171.786 53.8273C174.265 53.8371 174.694 53.7523 176.245 52.9465L177.962 52.0548L177.946 48.7624C177.928 44.7996 177.736 43.9083 176.803 43.4661C176.411 43.2806 176.091 42.9485 176.091 42.728C176.091 42.412 176.945 42.3271 180.12 42.3271C183.424 42.3271 184.148 42.4041 184.148 42.7559C184.148 42.9917 183.908 43.2637 183.616 43.3603C182.718 43.6566 182.421 44.894 182.421 48.3371C182.421 52.6637 182.127 53.3955 179.925 54.5448C176.835 56.1571 171.78 56.9582 168.285 56.3896L168.285 56.3896ZM241.832 53.4733C233.321 44.8702 224.935 36.8929 224.681 37.1577C224.512 37.3328 224.437 40.7049 224.489 45.7563L224.574 54.0668L225.509 54.8785C226.023 55.3249 226.444 55.7814 226.444 55.8929C226.444 56.0044 224.891 56.0956 222.992 56.0956C220.298 56.0956 219.539 56.0074 219.539 55.6947C219.539 55.4741 219.855 55.144 220.241 54.961C221.44 54.3925 221.55 53.1689 221.551 40.3067C221.553 30.1442 221.616 28.2592 221.958 28.2592C222.181 28.2592 226.847 32.502 232.327 37.6877C237.807 42.8733 242.415 47.1161 242.568 47.1161C242.739 47.1161 242.845 44.0155 242.845 39.0149C242.845 30.674 242.768 30.0414 241.648 29.215C240.611 28.4495 241.136 28.2592 244.284 28.2592C246.024 28.2592 247.449 28.3516 247.449 28.4644C247.449 28.5773 247.157 28.9921 246.801 29.3862C246.155 30.1014 246.154 30.1283 246.01 43.174C245.869 55.9656 245.854 56.2468 245.291 56.3168C244.901 56.3653 243.785 55.448 241.831 53.4733L241.832 53.4733ZM26.4712 14.8293C26.4712 14.5475 39.5808 0.441192 40.2404 0.0131451C40.536 -0.178683 42.5195 1.70582 47.7989 7.19448C51.7356 11.2873 54.9566 14.7379 54.9566 14.8626C54.9566 14.9873 48.5474 15.0893 40.7139 15.0893C32.8442 15.0893 26.4712 14.973 26.4712 14.8293L26.4712 14.8293Z" id="logo-black" fill="#CCCCCC" fill-rule="evenodd" stroke="none" />
      </g>
    </g>
  </g>
</svg>